<?xml version="1.0" standalone="no"?>
<!DOCTYPE svg PUBLIC "-//W3C//DTD SVG 20010904//EN"
 "http://www.w3.org/TR/2001/REC-SVG-20010904/DTD/svg10.dtd">
<svg version="1.0" xmlns="http://www.w3.org/2000/svg"
 width="560.000000pt" height="384.000000pt" viewBox="0 0 560.000000 384.000000"
 preserveAspectRatio="xMidYMid meet">

<g transform="translate(0.000000,384.000000) scale(0.100000,-0.100000)"
fill="#000000" stroke="none">
<path d="M0 1920 l0 -1920 688 1 c631 0 768 5 704 21 -20 6 -22 12 -22 85 0
43 -4 83 -9 88 -5 6 -11 33 -12 60 -1 28 -7 56 -12 62 -5 7 -7 27 -4 45 2 18
0 41 -5 51 -6 12 -5 17 4 17 10 0 10 2 1 8 -19 12 -9 47 13 44 11 -2 -10 14
-45 34 -36 20 -103 62 -150 94 -47 31 -105 69 -129 84 l-42 26 18 38 c69 138
172 357 172 367 0 4 13 34 28 68 16 34 41 94 56 132 16 39 32 79 37 90 5 11
18 47 29 80 12 33 25 69 30 80 5 11 20 54 34 95 62 183 80 218 148 294 87 96
168 156 265 196 212 88 489 226 508 253 17 25 20 23 33 -23 37 -125 97 -281
124 -324 41 -66 101 -160 105 -165 2 -2 6 -1 10 3 4 4 1 11 -7 16 -8 5 -12 11
-9 14 7 7 59 -16 59 -26 0 -5 15 -7 33 -7 21 1 25 3 12 6 -41 10 -41 26 -1 20
22 -4 44 -13 48 -22 11 -19 24 -19 32 1 3 8 2 12 -4 9 -6 -3 -10 -2 -10 4 0 5
12 16 28 24 68 35 92 53 92 70 0 9 -6 17 -12 17 -10 0 -10 2 0 9 11 6 10 10
-4 15 -15 6 -16 9 -4 16 8 5 22 4 33 -2 10 -5 20 -8 21 -6 17 27 28 82 37 186
8 98 14 131 28 145 18 18 20 18 89 -17 81 -41 179 -81 334 -136 158 -57 216
-91 299 -178 78 -82 118 -137 139 -192 7 -19 19 -48 26 -65 25 -61 77 -225
110 -351 7 -27 31 -89 53 -138 23 -48 41 -89 41 -91 0 -12 129 -278 155 -320
27 -44 55 -99 55 -110 0 -11 -191 -141 -268 -183 -71 -37 -87 -50 -75 -58 12
-7 15 -29 14 -102 -1 -52 -6 -102 -11 -113 -6 -10 -7 -19 -3 -19 4 0 2 -5 -5
-12 -7 -7 -12 -27 -12 -46 0 -21 -7 -40 -17 -48 -17 -13 -17 -15 4 -32 14 -13
18 -23 12 -33 -5 -8 -6 -22 -3 -31 3 -11 -2 -19 -16 -23 -11 -4 -18 -11 -15
-16 4 -5 2 -9 -3 -9 -11 0 -52 -35 -52 -45 0 -4 16 -4 36 0 31 5 36 4 31 -9
-6 -14 77 -16 863 -16 l870 0 0 1920 0 1920 -2800 0 -2800 0 0 -1920z m3040
1495 c0 -7 8 -19 18 -24 14 -8 10 -10 -20 -11 -39 0 -49 15 -26 38 16 16 28
15 28 -3z m-392 -47 c6 -6 34 -12 61 -13 28 -1 54 -5 58 -8 3 -4 23 -7 43 -7
21 0 43 -7 50 -15 7 -8 18 -15 24 -15 31 -1 74 -60 70 -95 -1 -11 -4 -48 -7
-83 -2 -34 -7 -65 -10 -69 -4 -3 -2 -12 4 -19 16 -19 -1 -24 -109 -35 -53 -6
-98 -14 -100 -20 -2 -5 -10 -9 -17 -9 -8 0 -12 -8 -10 -19 4 -23 -14 -32 -47
-24 -29 8 -53 31 -53 52 0 17 -106 44 -138 35 -10 -3 -20 1 -23 10 -3 8 -22
20 -41 27 -30 9 -34 14 -27 33 4 11 8 53 10 91 1 39 6 81 12 95 5 14 11 30 13
35 2 6 13 10 24 10 11 0 25 3 30 6 6 4 30 10 55 15 25 4 48 9 53 10 4 1 19 2
33 3 14 0 22 5 19 11 -9 14 8 13 23 -2z m-195 -385 c-7 -2 -19 -2 -25 0 -7 3
-2 5 12 5 14 0 19 -2 13 -5z m-63 -43 c0 -12 -50 -33 -58 -26 -3 3 1 12 8 21
14 17 50 20 50 5z m555 -10 c3 -5 -1 -10 -9 -10 -8 0 -18 5 -21 10 -3 6 1 10
9 10 8 0 18 -4 21 -10z m-730 -20 c-3 -5 1 -20 9 -32 21 -29 20 -35 -3 -43
-40 -12 -29 -102 14 -118 18 -8 20 -27 3 -27 -7 1 -23 17 -36 37 -21 32 -22
43 -16 107 4 39 12 74 18 78 15 10 18 10 11 -2z m-67 -90 c0 -32 -1 -33 -8
-10 -4 14 -8 39 -8 55 -1 25 1 27 8 10 5 -11 8 -36 8 -55z m22 49 c0 -11 -4
-18 -10 -14 -5 3 -7 12 -3 20 7 21 13 19 13 -6z m535 -53 c11 -27 32 -62 48
-77 27 -27 36 -59 17 -59 -5 0 -10 4 -10 10 0 5 -9 14 -21 21 -17 9 -25 7 -43
-10 -26 -24 -71 -28 -80 -6 -3 8 -16 15 -28 15 -24 -1 -81 -28 -63 -31 29 -4
106 -10 148 -11 26 0 47 -4 47 -8 0 -3 14 -5 30 -2 17 2 30 9 30 14 0 6 7 7
16 4 13 -5 15 -2 11 14 -4 17 0 20 28 20 58 0 135 21 154 42 12 12 21 16 26 9
3 -6 2 -11 -4 -11 -6 0 -8 -6 -5 -13 3 -9 -10 -18 -38 -27 -33 -11 -38 -15
-21 -18 14 -2 20 -8 17 -17 -4 -10 0 -12 15 -8 15 4 21 1 21 -12 0 -12 -5 -15
-19 -10 -17 5 -21 0 -27 -32 -9 -49 -21 -73 -38 -73 -17 0 -26 -22 -26 -60 0
-36 -16 -47 -30 -21 -8 16 -6 28 9 54 l19 35 -23 22 c-24 22 -41 15 -24 -10 5
-8 9 -18 9 -22 0 -12 -40 -9 -90 6 -57 17 -268 10 -289 -10 -3 -2 -15 6 -27
17 -22 21 -24 21 -30 4 -4 -10 -2 -25 4 -35 6 -10 7 -23 2 -31 -5 -7 -10 -11
-12 -9 -14 22 -48 100 -54 122 -3 16 -10 26 -14 23 -17 -11 -40 27 -40 66 0
27 -4 38 -11 33 -7 -4 -7 1 1 16 7 12 8 20 3 17 -4 -3 -8 19 -9 48 0 30 4 52
8 49 4 -3 8 -13 8 -23 0 -25 36 -68 71 -87 16 -8 50 -16 76 -18 26 -2 49 -9
51 -15 2 -7 19 2 38 19 19 16 39 30 44 30 5 0 12 10 15 21 4 12 16 37 27 56
29 49 57 42 83 -21z m-345 12 c25 -39 31 -58 16 -58 -18 0 -33 19 -41 53 -9
33 5 35 25 5z m80 8 c0 -11 -19 -15 -25 -6 -3 5 1 10 9 10 9 0 16 -2 16 -4z
m149 -15 c0 -3 -18 -21 -41 -38 -40 -32 -83 -42 -123 -27 -13 5 -11 9 11 20
14 8 34 14 43 14 9 0 32 8 50 18 34 18 61 24 60 13z m316 -31 c17 -11 24 -20
17 -20 -7 0 -11 -4 -8 -9 3 -5 -1 -14 -8 -21 -22 -17 -100 -2 -125 24 l-20 22
32 -3 c17 -1 44 -5 60 -9 17 -4 27 -2 27 5 0 6 -7 11 -16 11 -8 0 -12 5 -9 10
9 14 16 13 50 -10z m65 -11 c0 -6 -8 -18 -17 -27 -16 -16 -16 -16 -10 1 4 10
7 25 7 33 0 9 5 12 10 9 6 -3 10 -11 10 -16z m-720 -14 c0 -8 -4 -15 -10 -15
-5 0 -10 7 -10 15 0 8 5 15 10 15 6 0 10 -7 10 -15z m750 -65 c0 -5 -4 -10
-10 -10 -5 0 -10 5 -10 10 0 6 5 10 10 10 6 0 10 -4 10 -10z m-764 -33 c9 3
14 -1 14 -12 0 -9 -4 -13 -10 -10 -5 3 -10 1 -10 -4 0 -6 7 -11 15 -11 9 0 15
-10 15 -26 0 -19 -4 -25 -17 -22 -10 2 -17 10 -15 16 1 7 -2 12 -7 12 -5 0 -9
17 -9 38 0 20 3 32 5 25 2 -7 11 -9 19 -6z m437 -147 c23 0 36 -4 32 -10 -4
-6 9 -10 32 -10 36 -1 37 -1 18 -16 -11 -8 -25 -12 -32 -9 -8 2 -49 5 -93 6
-44 1 -83 5 -86 10 -3 5 -10 9 -16 9 -6 0 -4 -8 5 -18 10 -10 14 -22 10 -25
-13 -14 -42 -6 -57 15 -15 21 -14 23 14 34 17 7 45 10 66 7 29 -5 35 -3 29 7
-6 10 -2 12 16 7 13 -4 41 -7 62 -7z m111 -65 c-4 -8 -13 -15 -21 -15 -13 0
-13 3 -3 15 7 8 16 15 21 15 5 0 6 -7 3 -15z m-119 -30 c22 -8 52 -15 67 -15
39 0 45 -19 14 -45 -24 -21 -35 -23 -99 -19 -104 6 -117 8 -125 20 -4 6 -12
13 -19 15 -8 3 -5 12 8 28 13 16 23 21 27 14 5 -8 14 -7 32 2 31 18 45 18 95
0z m-171 -351 c3 -8 2 -12 -4 -9 -6 3 -10 10 -10 16 0 14 7 11 14 -7z m182
-31 c63 -4 76 -9 55 -23 -11 -6 -10 -9 5 -13 10 -2 -10 -5 -46 -5 -67 0 -161
24 -167 45 -3 7 9 11 32 11 20 0 39 3 42 6 4 4 10 1 14 -5 4 -7 33 -14 65 -16z
m-141 -42 c-6 -5 -25 10 -25 20 0 5 6 4 14 -3 8 -7 12 -15 11 -17z"/>
<path d="M2628 3146 c-6 -14 -8 -31 -5 -39 8 -22 65 -27 90 -7 20 17 20 18 4
44 -24 35 -73 36 -89 2z"/>
<path d="M2856 1977 c-10 -43 -16 -80 -14 -83 8 -7 40 123 36 143 -3 10 -12
-17 -22 -60z"/>
<path d="M2811 1832 c-6 -12 -11 -31 -10 -44 0 -17 4 -14 15 16 15 43 12 60
-5 28z"/>
<path d="M2726 1637 c3 -10 9 -15 12 -12 3 3 0 11 -7 18 -10 9 -11 8 -5 -6z"/>
<path d="M3077 1453 c-10 -9 -9 -73 1 -73 14 0 35 48 29 64 -7 17 -19 21 -30
9z"/>
<path d="M3060 1235 c0 -14 5 -25 10 -25 6 0 10 11 10 25 0 14 -4 25 -10 25
-5 0 -10 -11 -10 -25z"/>
<path d="M1756 1105 c-9 -25 -7 -67 3 -61 5 3 12 18 15 32 8 30 -8 55 -18 29z"/>
<path d="M1690 1063 c0 -5 14 -50 31 -100 29 -88 49 -117 49 -73 0 13 7 20 20
20 11 0 20 5 20 11 0 12 -43 89 -50 89 -3 0 -4 -18 -2 -40 6 -63 -14 -47 -37
30 -19 62 -31 86 -31 63z"/>
<path d="M1716 744 c-4 -14 -5 -28 -3 -31 3 -2 8 8 11 23 4 14 5 28 3 31 -3 2
-8 -8 -11 -23z"/>
<path d="M3642 473 c-39 -12 -52 -20 -48 -30 4 -8 11 -111 18 -229 l12 -214
78 0 78 0 -16 39 c-8 21 -14 45 -12 53 2 8 -6 31 -17 51 -16 31 -18 42 -8 67
8 21 8 41 1 67 -6 24 -6 43 0 57 16 33 21 66 10 66 -6 0 -8 9 -5 20 3 13 0 20
-8 20 -9 0 -12 9 -9 25 5 29 0 30 -74 8z"/>
<path d="M1665 437 c-4 -10 -5 -21 -1 -24 10 -10 18 4 13 24 -4 17 -4 17 -12
0z"/>
<path d="M1475 417 c19 -16 28 -34 30 -62 2 -22 8 -76 14 -120 5 -44 13 -115
17 -157 l6 -78 64 0 c35 0 64 1 64 3 8 53 17 279 13 325 -6 61 -6 62 -37 62
-17 0 -67 11 -111 25 -44 14 -81 25 -83 25 -2 0 9 -10 23 -23z"/>
</g>
</svg>
